<svg width="51" height="33" viewBox="0 0 51 33" fill="none" xmlns="http://www.w3.org/2000/svg">
<path d="M25.1367 20.7275C29.1745 17.1944 29.5239 15.2531 33.4065 13.273C35.6583 12.1083 37.4443 11.8365 38.3761 11.72C39.502 11.6035 41.7927 11.4871 44.394 12.4965C44.9764 12.7295 48.7036 14.2437 50.1401 18.398C51.5767 22.5134 49.5578 26.0465 49.2083 26.6677C48.0048 28.8031 46.3353 30.0455 45.4811 30.6279C45.1705 30.822 43.3069 32.0644 40.7833 32.4915C35.2701 33.4233 30.8052 29.7349 30.1063 29.1526C30.4946 28.4537 30.9216 27.7548 31.3099 27.0948C31.9311 27.4442 32.6688 27.8325 33.5618 28.1819C34.843 28.6866 35.9689 28.9196 36.9396 29.0361C37.6772 29.1526 39.6185 29.3079 41.5209 28.1819C42.4528 27.6384 43.0351 26.9783 43.2293 26.7454C45.4811 24.0664 44.5493 20.7275 44.4328 20.4557C44.394 20.3004 43.3846 17.2332 40.2785 16.0684C37.6384 15.059 35.2701 16.1073 34.4159 16.4955C32.9017 17.1555 31.8146 18.2427 31.6205 18.398C31.1934 18.825 30.9216 19.2133 30.7663 19.4074C29.6404 20.8828 28.4368 22.2805 27.3885 23.7947C26.4567 25.0759 23.5448 28.5702 19.4682 30.4726C18.0317 31.1326 13.3338 33.268 8.2477 31.3656C7.23824 30.9773 2.96746 29.3855 1.29798 24.9206C1.10385 24.377 -0.410335 20.1451 1.99683 16.2626C3.58867 13.7001 5.99583 12.6906 6.88881 12.3412C10.849 10.7494 14.4597 11.9141 15.4304 12.2636C19.507 13.5836 21.5648 16.5343 22.186 17.505C21.4095 17.9709 20.6718 18.4368 19.8953 18.9415C19.1188 18.2038 16.1292 15.5249 13.1009 14.8649C12.2079 14.6707 11.4314 14.6707 11.3925 14.6707C10.7325 14.6707 9.14068 14.7096 7.58767 15.719C7.08294 16.0684 5.95701 16.7673 5.37463 18.2038C4.75342 19.6792 5.06403 21.0381 5.14168 21.4263C5.72405 23.8723 7.9371 25.0759 8.59712 25.4253C11.1596 26.823 13.7609 26.396 15.3527 26.1242C20.4777 25.2312 23.9719 21.7369 25.1367 20.7275Z" fill="#3A3837"/>
<path d="M28.0003 3.91612C29.2427 3.64435 29.9804 2.16899 29.4757 1.08188C28.9709 -0.00522627 27.4567 -0.277003 26.4861 0.305376C25.9037 0.615978 25.399 1.31483 25.4378 2.09134C25.5543 3.21727 26.7967 4.1879 28.0003 3.91612Z" fill="#3A3837"/>
<path d="M13.2467 4.03261C13.9456 4.96441 15.1103 6.24565 16.7022 7.44923C17.8669 8.34221 21.0506 10.6329 25.8261 11.0212C30.5239 11.3706 33.9794 9.62345 34.7559 9.19637C37.629 7.64336 39.3373 5.58562 40.1914 4.42086C39.842 3.99378 39.4538 3.5667 39.1043 3.13963C38.056 4.22673 35.8042 6.24565 32.3099 7.37158C31.5334 7.60453 28.8545 8.38103 25.399 7.95396C19.9246 7.29393 16.3139 4.03261 15.0327 2.75137C14.4891 3.17845 13.8679 3.60553 13.2467 4.03261Z" fill="#3A3837"/>
</svg>
