<svg width="271" height="99" viewBox="0 0 271 99" fill="none" xmlns="http://www.w3.org/2000/svg">
<path d="M132.097 62.006L130.234 55.8888H120.865L119.002 62.006H113.13L122.201 36.2013H128.863L137.968 62.006H132.097ZM128.933 51.3185C127.211 45.7755 126.238 42.6408 126.015 41.9142C125.804 41.1877 125.652 40.6134 125.558 40.1916C125.172 41.6916 124.064 45.4005 122.236 51.3185H128.933ZM146.67 47.715H148.427C150.15 47.715 151.422 47.4279 152.242 46.8537C153.062 46.2794 153.472 45.3771 153.472 44.1466C153.472 42.9279 153.05 42.0607 152.207 41.5451C151.375 41.0294 150.08 40.7716 148.322 40.7716H146.67V47.715ZM146.67 52.1447V62.006H141.22V36.3068H148.709C152.201 36.3068 154.785 36.9455 156.461 38.2228C158.136 39.4884 158.974 41.4162 158.974 44.006C158.974 45.5177 158.558 46.8654 157.726 48.049C156.894 49.2209 155.716 50.1408 154.193 50.8087C158.06 56.5861 160.58 60.3185 161.752 62.006H155.705L149.57 52.1447H146.67ZM174.9 62.006H169.451V40.8419H162.472V36.3068H181.879V40.8419H174.9V62.006Z" fill="#3CB3CB"/>
<g opacity="0.9">
<path d="M269.654 51.7794C247.493 24.7349 214.057 8.72607 179.787 3.93802C139.86 -1.63885 98.2547 4.34948 60.706 18.6763C40.1867 26.5072 19.9913 36.0429 2.46317 49.4201C1.27527 50.3228 0.720906 51.7884 1.52353 53.1818C2.23678 54.4008 4.06748 54.966 5.28517 54.1214C8.17009 52.1355 11.0696 50.1496 13.9545 48.1637C13.0349 48.1731 12.1152 48.1826 11.1956 48.192C30.2804 58.5226 49.4793 68.5893 69.3936 77.2326C79.5708 81.6541 89.8156 85.5494 100.518 88.5203C111.382 91.5333 122.401 94.0629 133.599 95.5104C154.766 98.2573 177.067 97.518 197.573 91.2347C210.074 87.3985 221 80.7754 231.846 73.6129C238.459 69.2384 244.952 64.6461 251.076 59.6197C255.362 56.1011 260.416 52.0784 262.919 47.0014C261.49 47.2058 260.061 47.3957 258.633 47.6001C261.04 50.3055 263.447 52.9963 265.855 55.7017C268.159 58.3206 271.988 54.398 269.654 51.7794C267.247 49.074 264.839 46.3832 262.432 43.6778C261.295 42.4047 258.89 42.7651 258.146 44.2764C257.173 46.2427 256.336 47.1272 254.805 48.778C252.884 50.827 250.801 52.7024 248.659 54.5201C243.593 58.8203 238.188 62.7007 232.707 66.4358C227.213 70.1857 221.585 73.7763 215.838 77.1346C213.748 78.3532 211.629 79.5574 209.48 80.6889C208.637 81.1209 207.795 81.5529 206.938 81.9559C206.764 82.0453 205.775 82.4788 206.56 82.135C205.15 82.748 203.711 83.3029 202.271 83.8432C182.652 91.1831 161.089 92.6595 140.354 90.7987C129.599 89.8285 118.977 87.6597 108.541 84.9927C98.0456 82.3117 87.808 79.1171 77.823 74.9272C55.8736 65.7208 34.7968 54.7536 13.8769 43.4343C13.0548 42.9902 11.9153 42.9143 11.1179 43.4626C8.23301 45.4484 5.33349 47.4344 2.44857 49.4203C3.38437 50.9874 4.32017 52.5546 5.25597 54.1217C20.5822 42.4167 37.9104 33.7571 55.7203 26.5087C73.85 19.1256 92.4829 13.8397 111.779 10.6201C148.667 4.46106 188.32 6.05513 222.561 22.2893C239.242 30.1919 254.102 41.398 265.811 55.7022C266.757 56.8604 268.711 56.6214 269.679 55.6626C270.835 54.512 270.585 52.9086 269.654 51.7794Z" fill="#070305"/>
<path d="M87.5715 13.2476C82.7026 29.6341 84.2288 47.5172 92.1075 62.7219C99.9415 77.8396 113.896 89.0257 130.151 93.8814C146.011 98.6098 163.954 97.2873 178.29 88.7167C190.929 81.1709 199.543 68.3959 203.458 54.3551C207.471 39.9484 205.78 24.4321 199.306 11.0086C197.784 7.84155 193.083 10.6635 194.605 13.816C199.796 24.5955 201.611 37.9499 198.888 50.0513C196.235 61.8163 190.028 73.0337 180.485 80.5917C155.489 100.381 116.513 90.8092 99.7662 64.994C90.1097 50.114 87.832 31.5525 92.856 14.6243C93.8728 11.2706 88.5736 9.87955 87.5715 13.2476Z" fill="#070305"/>
</g>
</svg>
